<?xml version="1.0" standalone="no"?>
<!DOCTYPE svg PUBLIC "-//W3C//DTD SVG 20010904//EN"
 "http://www.w3.org/TR/2001/REC-SVG-20010904/DTD/svg10.dtd">
<svg version="1.0" xmlns="http://www.w3.org/2000/svg"
 width="4092.000000pt" height="1024.000000pt" viewBox="0 0 4092.000000 1024.000000"
 preserveAspectRatio="xMidYMid meet">
<metadata>
Created by potrace 1.16, written by Peter Selinger 2001-2019
</metadata>
<g transform="translate(0.000000,1024.000000) scale(0.100000,-0.100000)"
fill="#ffffff" stroke="none">
<path d="M1361 8466 c-7 -8 -28 -20 -47 -26 -19 -6 -34 -16 -34 -21 0 -5 -17
-18 -37 -29 -64 -36 -130 -77 -195 -121 -15 -11 -31 -19 -36 -19 -5 0 -17 -9
-27 -20 -10 -11 -27 -22 -39 -26 -11 -3 -29 -13 -39 -22 -19 -17 -32 -25 -98
-61 -24 -13 -47 -28 -51 -34 -3 -6 -20 -18 -36 -26 -71 -38 -98 -54 -117 -71
-11 -10 -30 -21 -43 -25 -13 -4 -27 -18 -33 -32 -5 -13 -9 -122 -9 -242 0
-244 4 -261 55 -241 17 6 38 19 48 27 18 17 30 25 94 60 22 12 45 29 52 37 8
9 19 16 25 16 6 0 36 18 66 40 30 22 66 44 80 50 28 11 30 12 94 58 26 17 51
32 56 32 5 0 21 11 37 24 15 13 42 31 58 40 46 25 67 39 98 64 16 12 34 22 41
22 7 0 22 8 34 18 12 9 44 31 72 47 29 17 65 40 80 53 15 12 31 22 35 22 5 0
33 17 63 38 30 20 62 41 71 47 9 5 45 28 81 51 36 23 77 48 91 55 34 19 114
69 153 96 17 13 42 28 56 35 14 6 33 18 43 27 9 8 27 19 40 25 12 7 22 18 22
26 0 22 -786 28 -804 6z"/>
<path d="M2985 8460 c-10 -11 -24 -20 -31 -20 -7 0 -25 -10 -41 -22 -32 -26
-54 -40 -104 -67 -19 -11 -41 -27 -48 -35 -8 -9 -19 -16 -25 -16 -12 0 -91
-51 -116 -73 -8 -8 -26 -18 -40 -22 -14 -4 -34 -15 -45 -24 -34 -29 -100 -71
-111 -71 -6 0 -19 -9 -29 -20 -10 -11 -27 -22 -37 -26 -23 -7 -82 -45 -116
-74 -13 -11 -30 -20 -37 -20 -7 0 -26 -10 -42 -22 -32 -26 -54 -40 -104 -67
-19 -11 -41 -27 -48 -35 -8 -9 -18 -16 -24 -16 -5 0 -35 -17 -65 -37 -30 -21
-71 -48 -91 -60 -20 -12 -52 -31 -71 -43 -19 -12 -51 -31 -71 -43 -20 -12 -62
-39 -93 -59 -31 -21 -59 -38 -62 -38 -3 0 -19 -11 -36 -25 -16 -14 -35 -25
-42 -25 -7 0 -21 -9 -31 -20 -10 -11 -23 -20 -30 -20 -7 0 -24 -11 -39 -25
-15 -14 -33 -25 -40 -25 -7 0 -26 -11 -42 -25 -16 -14 -34 -25 -40 -25 -6 0
-19 -9 -29 -20 -10 -11 -24 -20 -31 -20 -7 0 -26 -11 -42 -25 -17 -14 -33 -25
-37 -25 -5 0 -33 -17 -63 -37 -61 -43 -112 -74 -160 -99 -17 -10 -32 -21 -32
-24 0 -4 -18 -15 -40 -25 -22 -10 -40 -21 -40 -25 0 -4 -21 -20 -47 -36 -27
-16 -57 -35 -68 -42 -11 -7 -33 -20 -49 -30 -76 -46 -71 -26 -74 -273 -2 -153
1 -231 9 -250 l11 -28 37 19 c21 10 43 26 50 34 8 9 18 16 24 16 11 0 78 42
112 71 11 9 31 20 45 24 14 4 32 14 40 22 25 22 104 73 116 73 6 0 17 7 25 16
7 8 29 24 48 35 50 27 72 41 104 67 16 12 34 22 41 22 7 0 21 9 31 20 10 11
23 20 30 20 6 0 21 9 32 19 12 11 37 27 57 35 20 8 36 19 36 25 0 5 9 13 21
16 20 7 68 35 119 72 13 10 36 24 50 31 14 7 43 24 65 37 22 13 56 33 76 44
19 11 41 27 48 35 8 9 18 16 24 16 5 0 35 17 65 38 61 42 112 73 160 98 17 10
32 21 32 25 0 4 17 14 38 23 20 9 62 34 92 56 30 22 60 40 66 40 6 0 18 7 25
17 8 9 28 22 44 30 17 7 55 31 85 53 30 22 60 40 67 40 6 0 22 9 35 20 33 28
97 70 108 70 5 0 21 11 37 24 15 13 38 26 49 30 12 4 29 15 39 26 10 11 23 20
30 20 7 0 20 9 30 20 10 11 24 20 31 20 7 0 26 11 42 25 17 14 34 25 38 25 10
0 89 51 114 72 8 7 26 19 40 26 14 6 45 26 70 42 25 16 59 37 75 45 17 9 55
33 85 55 30 22 60 40 66 40 6 0 17 7 25 16 12 14 44 34 125 77 19 9 34 21 34
26 0 5 15 14 34 21 18 6 42 20 51 30 10 11 23 20 30 20 7 0 20 9 30 20 10 11
24 20 31 20 7 0 25 10 41 23 15 12 37 27 48 33 11 6 20 17 20 25 0 12 -66 14
-401 17 -390 2 -401 2 -419 -18z"/>
<path d="M4689 8465 c-16 -16 -59 -42 -117 -70 -18 -8 -35 -22 -39 -30 -3 -8
-11 -15 -18 -15 -7 0 -43 -21 -81 -46 -38 -26 -78 -50 -89 -55 -11 -5 -45 -27
-75 -49 -30 -22 -61 -40 -67 -40 -7 0 -22 -9 -32 -19 -10 -10 -48 -35 -84 -55
-36 -20 -71 -43 -77 -51 -7 -8 -18 -15 -25 -15 -8 0 -27 -11 -43 -25 -17 -14
-34 -25 -39 -25 -6 0 -18 -9 -28 -20 -10 -11 -24 -20 -31 -20 -7 0 -26 -11
-42 -25 -17 -14 -34 -25 -38 -25 -11 0 -92 -53 -114 -73 -8 -8 -26 -18 -40
-22 -14 -4 -34 -15 -45 -24 -34 -29 -101 -71 -112 -71 -6 0 -16 -7 -24 -16
-11 -14 -36 -29 -118 -73 -14 -8 -29 -19 -33 -24 -3 -6 -20 -18 -36 -26 -81
-43 -109 -61 -121 -75 -8 -9 -19 -16 -26 -16 -8 0 -27 -11 -43 -25 -17 -14
-33 -25 -36 -25 -4 0 -19 -8 -34 -19 -65 -44 -131 -85 -194 -121 -21 -11 -38
-24 -38 -29 0 -5 -13 -12 -30 -16 -16 -4 -32 -11 -35 -16 -8 -13 -110 -79
-122 -79 -6 0 -16 -7 -23 -15 -6 -8 -41 -31 -77 -51 -36 -20 -74 -45 -84 -55
-10 -10 -25 -19 -33 -19 -8 0 -27 -10 -43 -22 -32 -26 -54 -40 -104 -67 -19
-11 -41 -27 -48 -35 -8 -9 -19 -16 -25 -16 -6 0 -36 -18 -66 -40 -30 -22 -72
-47 -92 -56 -21 -9 -38 -19 -38 -23 0 -4 -15 -15 -32 -25 -43 -22 -92 -52
-162 -98 -31 -21 -59 -38 -62 -38 -3 0 -19 -11 -36 -25 -16 -14 -35 -25 -42
-25 -7 0 -21 -9 -31 -20 -10 -11 -23 -20 -30 -20 -7 0 -24 -11 -39 -25 -15
-14 -33 -25 -41 -25 -7 0 -26 -10 -42 -22 -32 -26 -54 -40 -104 -67 -19 -11
-41 -27 -48 -35 -8 -9 -18 -16 -24 -16 -11 0 -78 -42 -112 -71 -11 -9 -31 -20
-45 -24 -14 -4 -32 -14 -40 -22 -25 -22 -104 -73 -116 -73 -6 0 -17 -7 -25
-16 -7 -8 -29 -24 -48 -35 -50 -27 -72 -41 -104 -66 -16 -13 -33 -23 -38 -23
-5 0 -22 -8 -37 -19 -15 -10 -52 -35 -83 -54 -31 -20 -59 -44 -63 -53 -3 -8
-6 -127 -6 -263 0 -179 3 -250 12 -259 9 -9 737 -12 3213 -12 2881 0 3203 2
3223 16 21 15 22 20 22 205 0 176 -1 190 -20 209 -20 20 -33 20 -2850 20
l-2830 0 0 25 c0 18 9 30 34 42 18 10 59 35 90 56 31 20 59 37 63 37 3 0 15 8
25 17 25 22 85 59 121 74 15 6 27 15 27 20 0 5 19 18 43 28 23 10 48 26 56 35
7 9 19 16 26 16 6 0 20 9 30 20 10 11 24 20 31 20 7 0 26 11 42 25 17 14 33
25 37 25 5 0 33 17 63 38 30 20 71 47 91 59 20 12 52 31 71 43 19 12 51 31 71
43 20 12 61 39 91 60 30 20 60 37 65 37 6 0 17 7 24 17 8 9 28 22 44 30 17 7
55 31 85 53 30 22 60 40 66 40 6 0 17 7 25 16 12 14 43 33 123 76 18 9 38 23
45 32 8 9 19 16 25 16 6 0 36 18 66 40 30 22 69 46 85 53 17 8 36 21 44 30 7
10 19 17 26 17 7 0 18 7 26 16 7 9 30 23 51 31 21 8 38 19 38 24 0 5 15 16 33
24 17 8 52 29 77 45 25 16 59 37 75 45 17 9 55 33 85 55 30 22 60 40 66 40 6
0 17 7 25 16 12 14 44 34 125 77 19 9 34 21 34 26 0 5 17 16 38 24 21 8 44 22
51 31 8 9 19 16 26 16 6 0 20 9 30 20 10 11 24 20 31 20 7 0 25 10 41 23 32
25 54 39 104 66 19 11 41 27 48 35 8 9 19 16 25 16 12 0 93 51 117 75 9 8 20
15 26 15 6 0 44 22 84 50 41 27 79 50 85 50 6 0 19 9 30 21 10 11 32 27 49 35
47 23 74 39 98 61 12 12 33 24 47 28 14 4 34 15 45 24 20 17 58 42 106 71 27
15 97 60 151 95 53 35 102 64 136 82 17 9 32 21 32 25 0 5 15 15 33 23 34 14
149 86 199 124 14 12 30 21 35 21 4 0 33 18 63 40 30 22 70 46 88 55 19 8 32
20 30 27 -4 10 -93 14 -404 16 -350 2 -401 0 -415 -13z"/>
<path d="M6650 8459 c-19 -12 -46 -29 -60 -39 -14 -9 -37 -21 -50 -25 -14 -4
-38 -18 -53 -31 -16 -13 -35 -24 -42 -24 -7 0 -20 -6 -28 -14 -8 -8 -29 -22
-48 -31 -19 -8 -52 -27 -74 -40 -22 -14 -58 -33 -80 -43 -22 -11 -46 -27 -54
-36 -7 -9 -22 -16 -31 -16 -10 0 -31 -11 -47 -23 -15 -13 -40 -27 -55 -31 -40
-9 -35 -34 10 -44 20 -5 236 -9 479 -8 345 2 445 5 457 15 14 11 16 43 16 200
0 132 -4 191 -12 199 -8 8 -56 12 -152 12 -126 0 -145 -3 -176 -21z"/>
<path d="M14415 7669 c-16 -6 -76 -14 -133 -19 -79 -7 -108 -14 -129 -29 -14
-12 -34 -21 -43 -21 -28 0 -129 -57 -184 -103 -104 -88 -137 -121 -142 -142
-3 -13 -17 -32 -30 -44 -13 -11 -24 -27 -24 -35 0 -7 -7 -19 -15 -26 -8 -7
-20 -31 -27 -54 -6 -22 -18 -48 -25 -57 -7 -9 -18 -41 -23 -72 -5 -31 -17 -68
-27 -83 -16 -26 -18 -57 -18 -364 0 -325 1 -336 23 -387 12 -28 22 -67 22 -86
0 -19 8 -45 19 -58 10 -13 24 -41 30 -61 7 -21 16 -38 21 -38 4 0 13 -14 19
-31 6 -17 21 -42 33 -54 13 -12 37 -39 53 -59 38 -48 178 -166 197 -166 8 0
29 -11 46 -24 18 -13 51 -26 73 -30 22 -4 52 -14 65 -23 34 -22 231 -32 434
-23 127 6 163 11 200 28 25 12 63 22 85 22 24 0 56 10 80 25 22 14 47 25 56
25 9 0 27 9 41 19 13 11 36 23 51 26 14 4 53 33 86 64 l61 58 0 400 c0 375 -1
401 -18 416 -17 15 -59 17 -394 17 -350 0 -376 -1 -391 -18 -14 -15 -17 -41
-17 -135 0 -67 5 -127 12 -142 12 -28 6 -27 202 -30 83 -2 101 -5 113 -20 9
-14 13 -58 13 -161 l0 -143 -47 -32 c-34 -22 -65 -34 -108 -39 -33 -4 -78 -13
-101 -20 -35 -11 -54 -9 -140 10 -54 12 -103 28 -109 34 -5 6 -27 22 -47 36
-38 26 -98 95 -98 112 0 6 -8 22 -19 36 -10 15 -22 47 -26 72 -3 25 -15 71
-26 103 -16 49 -19 85 -18 245 0 103 4 207 9 232 22 120 43 197 61 226 10 17
19 40 19 49 0 25 59 108 90 128 14 9 32 21 40 26 99 63 196 72 315 31 108 -39
190 -133 202 -233 5 -39 10 -50 30 -58 38 -14 416 -12 431 3 19 19 15 128 -6
163 -11 17 -22 48 -26 70 -4 21 -16 50 -27 63 -10 14 -19 30 -19 37 0 17 -31
55 -105 128 -86 85 -99 97 -112 97 -5 0 -22 9 -35 20 -14 10 -44 24 -67 29
-23 5 -50 16 -59 24 -10 8 -48 18 -87 22 -38 4 -114 13 -167 21 -110 16 -103
16 -143 3z"/>
<path d="M9825 7634 c-23 -23 -22 -335 1 -358 14 -14 71 -16 484 -16 320 0
471 -3 475 -11 4 -5 0 -18 -10 -29 -15 -17 -32 -41 -137 -197 -25 -38 -53 -75
-62 -82 -9 -7 -16 -19 -16 -26 0 -7 -7 -19 -17 -26 -9 -8 -22 -29 -30 -46 -7
-18 -17 -33 -22 -33 -5 0 -24 -25 -42 -56 -19 -30 -55 -83 -81 -116 -27 -33
-48 -66 -48 -73 0 -6 -9 -20 -20 -30 -11 -10 -20 -23 -20 -29 0 -6 -9 -19 -20
-31 -12 -11 -39 -47 -60 -80 -22 -33 -60 -89 -85 -125 -25 -36 -55 -80 -66
-97 -12 -18 -24 -33 -29 -33 -4 0 -13 -15 -21 -32 -7 -18 -17 -36 -22 -39 -5
-3 -16 -18 -25 -32 -52 -78 -99 -145 -119 -170 -21 -26 -23 -38 -23 -142 0
-90 3 -117 16 -129 14 -14 99 -16 783 -16 599 0 771 3 784 13 16 11 17 31 15
187 l-3 175 -465 5 c-256 3 -473 9 -483 14 -14 7 -15 11 -5 23 12 15 16 21 53
82 11 18 31 48 45 66 14 18 31 41 38 51 25 38 97 147 114 173 27 41 41 61 68
97 14 18 38 55 54 81 17 26 44 66 62 88 17 22 39 54 48 70 9 17 32 50 51 75
19 25 40 56 46 70 5 13 17 31 25 40 27 28 74 93 74 102 0 5 18 33 41 61 22 29
57 77 77 108 20 31 60 89 87 129 28 40 56 82 62 94 15 25 17 224 3 246 -8 13
-108 15 -784 17 -686 2 -777 1 -791 -13z"/>
<path d="M12285 7641 c-33 -5 -40 -10 -46 -36 -4 -16 -16 -48 -28 -70 -12 -21
-21 -51 -21 -66 0 -14 -9 -38 -20 -52 -11 -14 -20 -36 -20 -50 0 -13 -11 -45
-25 -71 -14 -26 -25 -56 -25 -67 0 -11 -11 -41 -25 -67 -14 -26 -25 -59 -25
-73 0 -14 -8 -37 -19 -50 -10 -13 -22 -44 -26 -69 -4 -25 -16 -56 -26 -69 -11
-13 -19 -36 -19 -50 0 -14 -11 -47 -25 -73 -14 -26 -25 -57 -25 -69 0 -12 -8
-36 -19 -53 -10 -17 -22 -49 -26 -70 -3 -22 -15 -51 -26 -64 -10 -14 -19 -37
-19 -51 0 -14 -11 -47 -25 -73 -14 -26 -25 -57 -25 -69 0 -12 -9 -36 -19 -53
-11 -17 -23 -49 -26 -71 -4 -22 -13 -47 -21 -55 -7 -9 -18 -37 -24 -63 -6 -27
-18 -59 -27 -73 -8 -14 -20 -45 -24 -71 -5 -26 -15 -54 -23 -62 -8 -9 -18 -34
-21 -56 -4 -22 -13 -47 -21 -55 -7 -9 -18 -37 -24 -63 -6 -27 -18 -59 -27 -73
-29 -45 -12 -49 229 -52 122 -2 231 -1 244 2 26 7 74 98 74 143 0 15 12 51 25
78 14 28 25 65 25 83 0 25 8 42 31 63 l31 29 298 0 c191 0 308 -4 329 -11 34
-12 51 -35 51 -68 0 -12 9 -38 20 -58 11 -21 20 -51 20 -68 0 -17 11 -51 25
-77 14 -26 25 -58 25 -71 0 -12 5 -28 12 -35 17 -17 479 -17 496 0 18 18 14
62 -8 91 -11 14 -20 34 -20 44 0 11 -11 42 -25 69 -14 27 -25 58 -25 69 0 11
-11 41 -25 67 -14 26 -25 59 -25 73 0 15 -9 38 -19 52 -11 13 -23 44 -27 69
-3 24 -15 55 -25 68 -11 13 -19 35 -19 48 0 13 -11 44 -25 70 -14 26 -25 57
-25 69 0 12 -9 36 -19 53 -11 17 -23 49 -27 71 -4 22 -15 51 -25 64 -11 13
-19 36 -19 50 0 14 -11 47 -25 73 -14 26 -25 56 -25 67 0 11 -11 41 -25 67
-14 26 -25 58 -25 71 0 13 -9 36 -19 51 -11 15 -22 44 -26 65 -3 21 -15 53
-26 70 -10 18 -19 43 -19 56 0 13 -9 38 -19 55 -11 17 -23 49 -27 71 -4 22
-15 50 -24 62 -10 13 -21 43 -24 67 -4 24 -13 50 -21 56 -7 6 -18 34 -24 61
-6 27 -22 66 -35 88 -21 33 -31 39 -72 45 -56 7 -313 6 -369 -3z m229 -627 c3
-9 6 -28 6 -43 0 -15 9 -44 20 -65 10 -21 22 -59 26 -85 3 -25 14 -59 24 -76
10 -16 20 -51 23 -77 4 -26 16 -62 27 -80 11 -18 20 -49 20 -68 0 -19 9 -50
20 -68 29 -47 27 -90 -6 -102 -34 -13 -345 -13 -379 0 -23 9 -26 15 -22 38 3
15 11 52 17 82 6 30 19 71 30 91 11 20 20 50 20 66 0 16 9 47 20 68 12 22 23
60 27 85 3 25 14 59 23 75 10 17 21 54 25 83 9 71 62 121 79 76z"/>
<path d="M5113 7567 c-28 -12 -60 -30 -70 -39 -10 -9 -30 -19 -45 -23 -14 -4
-34 -15 -44 -26 -9 -10 -25 -19 -35 -19 -10 0 -31 -11 -47 -25 -17 -14 -36
-25 -43 -25 -7 0 -29 -10 -48 -23 -61 -39 -75 -47 -116 -68 -22 -11 -62 -33
-90 -49 -27 -16 -65 -36 -83 -45 -18 -8 -41 -24 -52 -35 -11 -11 -26 -20 -34
-20 -21 0 -31 -21 -15 -31 8 -5 581 -9 1291 -9 1166 0 1278 1 1293 16 14 14
16 42 13 216 -3 184 -5 201 -22 214 -17 12 -157 14 -910 14 l-891 -1 -52 -22z"/>
<path d="M3517 6660 c-16 -5 -34 -13 -41 -19 -14 -12 -135 -78 -202 -111 -23
-11 -47 -27 -54 -35 -7 -8 -21 -15 -30 -15 -10 0 -32 -11 -48 -25 -17 -14 -37
-25 -45 -25 -8 0 -25 -9 -38 -19 -14 -10 -40 -26 -59 -35 -19 -9 -53 -27 -75
-41 -22 -13 -59 -33 -82 -44 -45 -21 -50 -30 -31 -49 9 -9 485 -12 2078 -12
1990 0 2068 1 2083 18 15 16 17 45 17 204 0 160 -2 187 -17 199 -13 12 -293
14 -1722 16 -938 1 -1719 -2 -1734 -7z"/>
<path d="M15761 6026 c-50 -17 -73 -33 -113 -76 l-50 -55 4 -90 c3 -82 6 -93
33 -128 17 -21 54 -51 84 -68 52 -30 59 -31 140 -27 71 4 92 9 122 29 54 37
99 87 99 110 0 11 7 33 15 49 13 25 13 35 -7 98 -26 89 -62 126 -154 158 -83
29 -91 29 -173 0z"/>
<path d="M532 4845 c-14 -30 -17 -392 -4 -412 6 -10 599 -13 2855 -15 2173 -2
2849 -6 2858 -15 9 -9 4 -15 -22 -27 -19 -9 -54 -31 -79 -50 -25 -19 -50 -35
-56 -35 -6 -1 -28 -14 -49 -31 -21 -16 -41 -30 -46 -30 -10 0 -79 -44 -100
-65 -9 -8 -20 -15 -26 -15 -6 0 -41 -21 -79 -46 -38 -26 -76 -49 -84 -52 -8
-3 -25 -14 -37 -25 -23 -21 -34 -27 -100 -64 -22 -12 -45 -29 -52 -37 -8 -9
-19 -16 -25 -16 -10 0 -86 -47 -114 -70 -7 -6 -27 -18 -45 -26 -17 -8 -52 -30
-77 -49 -25 -18 -50 -34 -56 -34 -6 -1 -28 -14 -49 -31 -21 -16 -43 -30 -49
-31 -6 0 -31 -16 -56 -35 -25 -19 -61 -41 -80 -50 -19 -9 -37 -20 -40 -24 -3
-4 -20 -15 -37 -24 -18 -9 -33 -20 -33 -25 0 -5 -14 -14 -32 -20 -17 -6 -40
-19 -50 -28 -19 -17 -31 -25 -95 -60 -22 -12 -45 -29 -52 -37 -8 -9 -19 -16
-25 -16 -6 0 -44 -23 -85 -50 -40 -28 -78 -50 -84 -50 -6 0 -17 -7 -26 -15
-22 -21 -104 -75 -115 -75 -4 0 -21 -11 -38 -25 -16 -14 -35 -25 -42 -25 -7 0
-21 -9 -31 -20 -10 -11 -22 -20 -28 -20 -5 0 -22 -11 -39 -25 -16 -14 -35 -25
-43 -25 -7 0 -18 -7 -26 -16 -12 -14 -40 -32 -121 -75 -16 -8 -33 -20 -36 -26
-4 -5 -19 -16 -33 -24 -82 -44 -107 -59 -118 -73 -8 -9 -18 -16 -24 -16 -6 0
-40 -20 -76 -43 -36 -24 -79 -52 -95 -63 -55 -36 -101 -63 -133 -79 -18 -8
-33 -20 -33 -25 0 -6 -12 -15 -27 -21 -16 -6 -57 -29 -93 -52 -36 -23 -72 -47
-81 -52 -9 -6 -41 -26 -70 -46 -30 -20 -64 -40 -77 -44 -12 -3 -22 -11 -22
-16 0 -5 -15 -17 -34 -26 -85 -45 -116 -64 -116 -72 0 -5 -15 -14 -34 -21 -18
-6 -42 -20 -51 -30 -10 -11 -22 -20 -27 -20 -5 0 -21 -8 -36 -19 -60 -41 -125
-82 -187 -117 -16 -9 -34 -23 -38 -30 -4 -8 -14 -14 -21 -14 -7 0 -43 -20 -80
-44 -36 -25 -77 -51 -90 -58 -13 -7 -48 -29 -78 -48 -67 -44 -86 -56 -122 -78
-16 -9 -43 -29 -59 -44 -16 -15 -34 -29 -40 -31 -6 -2 -7 -8 -4 -14 5 -8 119
-12 377 -13 360 -1 371 0 422 21 29 12 62 30 73 39 11 10 50 34 88 54 37 21
67 42 67 46 0 5 10 12 23 15 19 6 63 33 181 111 55 36 101 63 134 79 17 8 32
20 32 25 0 5 15 16 33 24 19 7 57 30 85 50 29 20 56 36 61 36 5 0 22 11 38 24
15 13 55 38 88 57 33 18 63 37 67 43 3 5 20 17 36 25 87 47 112 62 112 71 0 6
6 10 14 10 7 0 47 22 87 50 41 27 79 50 85 50 6 0 21 11 34 25 13 14 28 25 34
25 12 0 92 51 116 73 8 8 26 18 40 22 14 4 34 15 45 24 20 17 56 42 106 71 49
29 90 55 137 87 26 18 63 40 82 49 19 9 37 20 40 24 3 4 20 15 38 24 17 9 32
21 32 25 0 5 13 12 30 16 16 4 32 11 35 16 8 12 110 79 122 79 5 0 20 11 33
25 13 14 28 25 34 25 6 0 37 18 68 40 32 22 72 46 90 55 18 8 53 30 78 49 25
19 50 35 56 35 6 1 28 15 49 31 21 17 43 30 49 31 6 0 31 16 56 35 25 18 62
41 83 50 20 9 37 19 37 23 0 4 15 15 33 25 36 19 89 51 133 80 26 17 129 83
179 114 26 16 76 49 95 62 8 6 29 18 46 28 40 22 118 71 158 99 17 12 45 29
61 37 17 8 48 29 70 45 22 17 57 38 78 47 20 9 37 19 37 23 0 4 15 15 33 25
36 19 89 51 133 80 118 78 162 105 182 111 12 3 22 10 22 15 0 5 18 19 39 30
22 10 49 31 60 46 20 25 21 38 21 263 0 225 -1 238 -20 259 l-21 22 -3203 0
-3203 0 -11 -25z"/>
<path d="M32560 4055 c-71 -9 -108 -20 -146 -41 -29 -16 -69 -39 -90 -51 -22
-11 -52 -35 -67 -51 -33 -34 -31 -54 9 -102 l25 -30 40 20 c21 11 39 25 39 31
0 5 19 18 43 29 23 11 49 24 57 29 8 5 35 14 60 20 25 7 64 17 87 23 35 9 56
7 130 -12 98 -25 144 -51 188 -107 28 -35 30 -44 30 -119 0 -73 -3 -83 -27
-112 -68 -81 -123 -102 -327 -122 -50 -5 -87 -14 -92 -22 -13 -20 -11 -86 4
-95 6 -4 44 -10 82 -14 65 -5 147 -19 237 -41 42 -10 128 -91 128 -121 0 -10
7 -34 16 -53 15 -31 15 -37 0 -81 -9 -25 -16 -54 -16 -62 -1 -21 -46 -69 -95
-102 -86 -57 -341 -59 -423 -2 -19 12 -40 23 -46 23 -6 0 -33 20 -61 45 -27
25 -50 45 -52 45 -1 0 -18 -14 -38 -31 -48 -43 -46 -71 8 -123 50 -47 127 -96
151 -96 9 0 30 -10 46 -21 26 -20 40 -21 214 -21 165 0 190 2 214 18 15 11 38
24 52 29 67 27 180 144 180 187 0 9 9 40 20 68 25 63 25 80 1 133 -10 23 -22
56 -26 74 -9 46 -103 139 -155 154 -24 7 -49 24 -61 40 l-20 28 41 11 c50 13
121 65 145 104 10 16 26 37 36 47 32 32 25 249 -10 291 -78 96 -97 115 -129
126 -20 7 -44 20 -54 29 -11 10 -49 19 -105 24 -48 5 -101 10 -118 12 -16 2
-73 -1 -125 -8z"/>
<path d="M37000 4055 c-84 -11 -140 -30 -200 -66 -8 -5 -32 -18 -53 -29 -48
-26 -173 -152 -192 -194 -8 -17 -19 -38 -24 -46 -40 -63 -59 -124 -71 -225
-15 -131 -15 -115 0 -245 7 -58 21 -121 30 -140 10 -19 24 -50 30 -67 7 -18
16 -33 20 -33 4 0 13 -14 21 -32 17 -42 150 -175 192 -193 19 -8 39 -21 46
-29 7 -8 27 -18 44 -22 17 -3 49 -16 72 -28 37 -19 55 -21 233 -20 181 0 194
2 222 22 16 12 35 22 43 22 16 0 125 56 147 76 8 7 34 29 56 49 57 48 64 84
64 318 0 169 -2 196 -17 208 -12 11 -75 15 -283 17 -147 2 -283 -1 -301 -6
-30 -7 -35 -14 -43 -50 -6 -29 -5 -51 2 -67 l12 -25 212 0 c117 0 219 -4 227
-9 11 -7 14 -37 12 -148 l-2 -138 -37 -32 c-20 -18 -48 -36 -62 -39 -14 -4
-34 -15 -45 -24 -12 -11 -46 -21 -84 -25 -35 -4 -76 -11 -91 -15 -41 -12 -227
22 -275 50 -53 31 -60 37 -130 107 -61 61 -97 113 -110 155 -4 13 -15 31 -24
42 -13 15 -17 48 -19 188 -3 156 -2 172 17 204 12 19 21 41 21 49 0 7 11 27
25 43 14 17 25 33 25 36 0 15 75 102 99 115 14 7 31 18 36 25 27 30 83 59 153
78 115 31 171 34 242 9 33 -12 71 -21 84 -21 13 0 29 -6 35 -14 6 -8 25 -19
42 -26 16 -7 51 -32 77 -56 27 -25 57 -44 70 -44 13 0 41 17 63 38 l41 37 -65
60 c-80 74 -121 105 -139 105 -7 0 -29 10 -48 22 -24 15 -67 26 -135 34 -118
15 -140 15 -265 -1z"/>
<path d="M9777 4043 c-13 -13 -7 -64 13 -100 11 -21 20 -54 20 -73 0 -19 9
-53 21 -74 11 -21 23 -61 26 -90 3 -28 13 -65 23 -81 9 -17 20 -55 24 -84 4
-29 16 -69 26 -89 11 -20 20 -53 20 -72 0 -20 9 -54 21 -75 11 -22 23 -62 26
-90 3 -27 14 -66 23 -85 10 -19 21 -60 25 -90 4 -30 14 -62 22 -71 8 -10 18
-43 23 -75 4 -33 18 -79 29 -104 11 -25 21 -55 21 -66 0 -12 7 -25 16 -28 22
-8 147 -7 160 2 6 4 14 28 17 54 4 26 16 64 27 85 11 21 20 56 20 78 0 22 9
57 20 77 10 20 22 60 26 90 4 29 14 69 24 88 9 19 20 62 24 95 4 32 14 67 22
76 9 10 19 47 24 84 4 36 15 76 24 89 8 13 18 48 21 77 7 59 54 171 70 166 5
-2 13 -25 17 -51 3 -26 14 -58 22 -71 9 -13 20 -53 25 -89 5 -35 16 -75 24
-87 8 -13 18 -48 22 -78 4 -30 16 -72 26 -95 10 -23 19 -56 19 -74 0 -18 11
-59 25 -92 14 -33 25 -75 25 -95 0 -19 9 -51 19 -71 11 -20 23 -62 27 -93 6
-48 18 -83 53 -151 10 -19 146 -27 166 -10 8 7 17 33 20 58 3 26 15 67 25 92
10 25 21 64 25 88 3 23 14 59 25 80 11 20 20 53 20 73 0 21 11 61 25 91 14 29
25 68 25 86 0 18 8 49 19 70 10 20 22 59 26 87 4 27 15 65 25 85 9 19 20 58
23 87 3 29 13 62 21 75 8 13 19 51 25 85 5 34 16 72 24 85 8 13 18 47 21 77 4
29 14 64 23 77 12 20 13 27 3 39 -10 12 -30 15 -89 13 l-76 -3 -8 -40 c-5 -22
-17 -59 -28 -83 -10 -23 -19 -58 -19 -78 0 -19 -11 -61 -25 -94 -14 -33 -25
-76 -25 -95 0 -20 -9 -55 -19 -78 -10 -23 -22 -67 -26 -97 -4 -30 -14 -66 -22
-79 -8 -13 -19 -55 -24 -92 -5 -38 -15 -79 -23 -92 -9 -12 -20 -52 -25 -87 -5
-36 -19 -83 -30 -105 -12 -21 -21 -45 -21 -52 0 -32 -20 -19 -30 19 -6 24 -17
57 -26 73 -8 17 -19 58 -24 92 -4 33 -15 72 -24 85 -8 13 -18 50 -22 83 -4 33
-15 73 -24 90 -10 16 -20 53 -23 81 -3 29 -15 69 -26 90 -12 21 -21 57 -21 79
0 22 -9 57 -20 77 -10 20 -22 60 -26 90 -4 29 -15 70 -25 90 -11 21 -19 52
-19 71 0 46 -15 57 -82 57 -54 0 -59 -2 -69 -27 -6 -16 -17 -42 -25 -58 -8
-17 -19 -58 -24 -92 -4 -33 -15 -72 -23 -84 -8 -13 -18 -49 -22 -79 -4 -30
-16 -72 -26 -92 -11 -21 -19 -54 -19 -75 0 -22 -9 -57 -20 -78 -11 -22 -25
-68 -29 -101 -5 -34 -16 -73 -24 -85 -8 -13 -18 -49 -22 -79 -4 -30 -14 -66
-22 -79 -8 -13 -19 -53 -23 -88 -5 -36 -11 -68 -15 -71 -4 -4 -19 7 -35 25
-21 23 -30 46 -35 90 -4 32 -15 74 -25 93 -9 19 -20 61 -24 93 -3 32 -15 74
-26 95 -11 20 -20 55 -20 77 0 23 -9 59 -20 80 -11 22 -23 65 -26 95 -4 30
-13 66 -21 78 -8 13 -19 54 -25 90 -5 37 -16 77 -24 89 -8 12 -18 53 -24 90
-6 44 -15 72 -26 80 -18 13 -145 18 -157 6z"/>
<path d="M11676 4037 c-16 -11 -17 -57 -16 -667 0 -602 2 -656 17 -667 21 -16
85 -17 101 -1 9 9 12 99 12 344 0 191 4 344 10 358 11 29 97 116 115 116 7 0
33 11 59 25 61 33 192 36 234 7 15 -10 35 -22 44 -25 10 -3 30 -30 45 -59 l28
-53 3 -350 c2 -229 7 -354 14 -362 15 -18 112 -17 127 1 9 11 11 105 9 368 -3
293 -7 361 -20 398 -9 25 -19 57 -22 71 -6 30 -36 66 -89 107 -33 27 -48 31
-130 37 -109 8 -219 -7 -255 -35 -13 -11 -29 -20 -35 -20 -6 0 -24 -11 -41
-24 -43 -32 -76 -42 -87 -25 -5 8 -9 111 -9 230 0 154 -3 218 -12 227 -16 16
-80 15 -102 -1z"/>
<path d="M16248 4039 c-17 -9 -18 -52 -18 -669 0 -642 1 -660 19 -670 25 -13
77 -13 102 0 18 10 19 25 19 356 l0 345 24 36 c26 37 56 59 145 105 46 24 66
28 133 28 69 0 85 -4 133 -31 30 -17 55 -36 55 -43 0 -6 10 -30 22 -51 20 -38
22 -56 27 -395 l6 -355 56 -3 c39 -2 59 1 68 12 9 10 11 104 8 372 -3 323 -6
366 -24 428 -16 56 -29 77 -71 118 -51 50 -53 50 -138 60 -112 13 -247 -2
-279 -32 -12 -11 -26 -20 -32 -20 -6 0 -24 -11 -40 -24 -15 -13 -43 -27 -60
-30 l-33 -8 0 225 c0 192 -2 228 -16 241 -17 18 -80 21 -106 5z"/>
<path d="M22414 4036 c-18 -14 -19 -34 -22 -661 -3 -731 -8 -685 73 -685 22 0
46 5 53 12 9 9 12 171 12 668 0 497 -3 659 -12 668 -16 16 -80 15 -104 -2z"/>
<path d="M23592 4038 c-9 -9 -12 -78 -12 -248 0 -130 -3 -239 -6 -242 -6 -6
-65 30 -94 57 -80 76 -150 93 -313 77 -80 -8 -104 -14 -137 -37 -60 -42 -140
-125 -147 -154 -3 -14 -14 -35 -24 -46 -11 -12 -20 -45 -25 -85 -3 -36 -13
-80 -20 -99 -18 -43 -18 -98 0 -147 7 -22 16 -69 20 -106 5 -45 13 -71 26 -83
10 -9 22 -30 25 -46 7 -29 108 -139 129 -139 7 0 26 -11 44 -24 37 -27 152
-39 262 -27 59 6 72 12 149 69 46 34 89 61 95 59 6 -2 12 -26 14 -53 2 -26 8
-54 14 -61 13 -17 110 -17 126 -1 9 9 12 171 12 668 0 497 -3 659 -12 668 -16
16 -110 16 -126 0z m-201 -486 c13 -11 37 -22 52 -26 15 -4 53 -31 83 -60 l54
-54 0 -224 0 -225 -27 -34 c-14 -19 -42 -44 -60 -56 -52 -35 -158 -74 -201
-75 -80 -1 -244 79 -258 126 -3 12 -15 30 -25 42 -10 11 -23 42 -28 70 -5 27
-14 62 -20 77 -6 16 -11 48 -11 72 0 24 5 56 11 72 6 15 15 50 20 76 5 27 18
60 29 74 11 14 20 31 20 37 0 18 71 74 125 101 66 31 199 35 236 7z"/>
<path d="M28033 4039 c-18 -18 -16 -49 6 -85 10 -17 22 -55 26 -85 4 -30 15
-70 25 -89 9 -19 20 -60 24 -90 4 -30 14 -62 22 -71 8 -9 17 -40 21 -70 3 -30
14 -70 23 -89 10 -20 21 -58 25 -85 4 -28 16 -67 26 -87 11 -21 19 -52 19 -70
0 -18 10 -53 21 -78 11 -25 25 -71 29 -104 5 -32 15 -65 23 -75 8 -9 18 -41
22 -71 4 -30 16 -72 26 -92 11 -21 19 -48 19 -61 0 -38 19 -47 100 -47 87 0
100 8 100 62 0 22 8 55 19 76 10 20 22 62 26 92 4 30 14 66 22 79 8 12 19 51
24 85 4 33 18 79 29 101 11 21 20 56 20 78 0 21 8 54 19 75 10 20 22 62 26 92
4 30 15 71 25 90 9 19 20 58 23 85 5 49 52 155 68 155 4 0 11 -21 15 -47 4
-27 14 -64 24 -83 9 -19 20 -57 23 -85 3 -27 15 -68 26 -90 12 -21 21 -57 21
-80 0 -22 9 -57 20 -77 10 -20 22 -60 26 -90 4 -29 14 -69 24 -88 9 -19 20
-59 23 -89 4 -29 13 -64 22 -77 8 -13 19 -53 24 -88 5 -36 17 -75 25 -88 9
-12 16 -32 16 -43 0 -36 20 -45 96 -45 84 0 104 13 104 66 0 19 11 61 25 94
14 33 25 73 25 90 0 17 8 47 19 68 10 20 22 62 26 92 4 30 15 69 25 85 9 17
20 53 23 82 3 29 13 62 21 75 8 13 19 51 25 85 5 34 16 72 24 85 8 13 18 46
21 74 3 27 15 68 26 89 11 22 20 55 20 75 0 19 11 58 25 85 13 28 25 66 25 85
0 19 7 48 15 64 30 56 18 66 -79 66 -68 0 -86 -10 -86 -50 0 -14 -9 -44 -20
-65 -11 -22 -23 -65 -27 -95 -3 -30 -14 -71 -23 -90 -10 -19 -21 -62 -25 -94
-4 -33 -15 -76 -26 -95 -10 -20 -19 -54 -19 -76 0 -23 -9 -59 -20 -80 -11 -22
-23 -65 -27 -95 -3 -30 -14 -71 -23 -90 -10 -19 -21 -62 -25 -95 -4 -33 -15
-73 -25 -90 -9 -16 -20 -42 -24 -57 -10 -42 -23 -34 -35 22 -6 28 -17 61 -25
73 -8 12 -17 47 -21 77 -4 30 -16 72 -26 92 -11 21 -19 54 -19 75 0 22 -9 57
-20 78 -11 22 -25 68 -29 101 -5 34 -16 73 -24 85 -8 13 -18 49 -22 79 -4 30
-15 71 -25 90 -9 19 -20 59 -23 89 -4 29 -13 64 -22 77 -8 13 -18 44 -22 69
-3 25 -11 50 -19 55 -19 16 -115 8 -125 -10 -34 -67 -47 -102 -53 -147 -3 -29
-15 -71 -26 -95 -11 -24 -20 -58 -20 -76 0 -18 -11 -59 -25 -92 -14 -33 -25
-74 -25 -92 0 -18 -8 -49 -19 -68 -10 -19 -21 -59 -25 -89 -4 -30 -16 -71 -27
-92 -10 -21 -19 -55 -19 -76 0 -21 -9 -55 -20 -76 -11 -21 -24 -64 -29 -97 -4
-33 -11 -63 -15 -67 -3 -4 -18 4 -32 18 -19 19 -27 42 -34 91 -5 35 -18 84
-29 109 -12 24 -21 62 -21 84 0 22 -9 56 -19 76 -10 19 -23 65 -29 101 -6 36
-17 77 -25 90 -8 12 -17 48 -20 79 -3 31 -15 73 -26 95 -12 21 -21 57 -21 79
0 22 -9 60 -20 84 -11 24 -23 67 -26 96 -4 29 -10 59 -15 66 -11 19 -150 25
-166 8z"/>
<path d="M31144 4036 c-20 -14 -20 -24 -19 -666 0 -633 1 -652 19 -666 25 -17
90 -18 104 -1 6 7 12 35 14 62 4 66 21 68 89 13 111 -89 117 -92 259 -91 123
1 129 2 182 32 59 33 158 125 158 146 0 7 9 24 20 37 10 14 24 47 30 74 6 27
18 68 26 92 7 23 14 76 14 117 0 41 -7 94 -14 117 -8 24 -20 65 -26 92 -6 27
-20 60 -30 74 -11 13 -20 31 -20 38 0 14 -108 124 -122 124 -4 0 -15 9 -26 20
-23 25 -174 43 -279 34 -77 -7 -76 -7 -162 -81 -40 -34 -85 -56 -95 -46 -3 4
-6 110 -6 238 0 166 -3 234 -12 243 -16 16 -79 15 -104 -2z m545 -489 c62 -29
147 -116 156 -160 4 -18 15 -40 24 -51 12 -14 17 -44 20 -132 3 -98 0 -119
-17 -156 -12 -24 -24 -55 -27 -70 -10 -39 -108 -135 -148 -143 -18 -4 -45 -14
-61 -22 -37 -19 -126 -20 -157 0 -13 8 -37 18 -53 21 -16 4 -43 18 -59 32 -16
13 -33 24 -38 24 -5 0 -23 21 -39 47 l-30 47 0 199 c0 226 5 245 73 300 82 65
134 85 224 86 65 1 91 -4 132 -22z"/>
<path d="M33921 4036 c-7 -8 -11 -37 -9 -68 3 -50 5 -53 33 -59 17 -4 182 -7
367 -8 208 -1 339 -5 343 -11 8 -13 -10 -45 -62 -108 -23 -30 -43 -57 -43 -62
0 -4 -19 -33 -42 -64 -24 -30 -54 -72 -68 -91 -26 -37 -69 -95 -96 -130 -8
-11 -32 -46 -51 -77 -20 -32 -40 -58 -45 -58 -5 0 -13 -10 -19 -22 -9 -23 -42
-71 -77 -115 -42 -54 -54 -71 -84 -118 -18 -27 -48 -70 -68 -95 -64 -79 -90
-134 -90 -187 0 -27 5 -54 12 -61 17 -17 949 -17 966 0 7 7 12 33 12 58 0 82
14 79 -395 82 -240 2 -359 6 -362 14 -3 10 53 103 69 115 5 3 24 30 43 60 19
30 43 63 54 74 12 12 21 24 21 29 0 4 10 21 23 36 12 16 33 45 47 65 14 21 32
44 40 54 8 9 29 39 47 66 18 28 39 59 47 70 33 43 72 96 96 130 14 20 46 63
73 97 26 33 47 65 47 70 0 5 20 33 44 61 69 83 96 137 96 193 0 28 -5 55 -12
62 -9 9 -129 12 -479 12 -391 0 -468 -2 -478 -14z"/>
<path d="M35540 4031 c-5 -11 -10 -27 -10 -36 0 -9 -9 -28 -20 -42 -11 -14
-20 -34 -20 -45 0 -10 -11 -40 -25 -66 -14 -26 -25 -56 -25 -68 0 -12 -9 -33
-20 -47 -11 -14 -20 -34 -20 -45 0 -10 -10 -39 -23 -63 -13 -24 -27 -59 -30
-77 -4 -19 -16 -45 -27 -59 -11 -14 -20 -37 -20 -50 0 -14 -8 -37 -19 -51 -10
-15 -22 -43 -26 -62 -4 -19 -16 -49 -26 -66 -10 -17 -19 -38 -19 -47 0 -9 -11
-37 -25 -63 -14 -26 -25 -57 -25 -69 0 -12 -9 -32 -19 -44 -10 -12 -22 -38
-26 -59 -4 -20 -13 -44 -20 -52 -7 -8 -18 -34 -25 -58 -6 -24 -20 -58 -31 -75
-41 -68 -21 -97 68 -97 74 0 98 17 109 77 3 21 13 46 21 55 8 9 19 35 24 57 5
22 23 60 40 85 l30 46 315 0 c312 0 354 -4 354 -34 0 -7 9 -25 20 -39 11 -14
23 -40 27 -59 3 -18 17 -53 30 -77 13 -24 23 -54 23 -67 0 -33 31 -45 107 -42
88 4 97 18 60 91 -15 30 -27 62 -27 71 0 10 -8 29 -19 42 -10 13 -22 41 -26
61 -4 20 -15 48 -26 61 -10 14 -19 37 -19 52 0 15 -8 38 -19 51 -10 13 -22 40
-26 59 -4 19 -15 49 -25 65 -10 17 -20 46 -24 66 -4 21 -13 42 -20 48 -8 7
-20 34 -26 61 -6 27 -18 54 -25 60 -7 6 -16 29 -20 50 -4 21 -15 49 -26 61
-10 12 -19 32 -19 44 0 12 -11 43 -25 69 -14 26 -25 56 -25 67 0 12 -9 32 -20
46 -11 14 -22 41 -26 62 -3 20 -14 48 -25 63 -10 15 -19 35 -19 45 0 10 -7 29
-16 41 -14 20 -23 22 -114 22 -88 0 -100 -2 -110 -19z m140 -210 c0 -9 9 -29
20 -46 11 -16 20 -38 20 -48 0 -10 11 -39 25 -65 14 -26 25 -55 25 -64 0 -9
11 -38 25 -64 14 -26 25 -56 25 -66 0 -11 9 -31 20 -45 11 -14 20 -36 20 -48
0 -12 11 -43 25 -69 14 -26 25 -58 25 -70 0 -13 7 -29 15 -36 14 -12 13 -16
-7 -37 l-23 -24 -253 3 c-235 3 -255 4 -267 22 -12 16 -12 22 5 44 11 13 20
34 20 46 0 12 11 42 25 68 14 26 25 55 25 65 0 10 7 29 16 42 9 12 22 45 29
73 8 27 21 58 29 67 9 10 16 26 16 37 0 11 9 38 20 59 11 22 25 57 30 77 6 20
22 55 37 77 20 32 29 38 40 30 7 -6 13 -19 13 -28z"/>
<path d="M25543 4000 c-30 -12 -45 -44 -41 -88 3 -31 9 -40 38 -54 27 -13 44
-15 75 -8 71 16 96 75 52 125 -24 29 -86 42 -124 25z"/>
<path d="M538 3949 c-16 -9 -18 -30 -18 -203 0 -150 3 -196 14 -212 14 -19 45
-19 1703 -22 1750 -2 1794 -2 1831 38 9 10 28 21 42 25 14 4 32 13 40 21 9 7
31 20 50 29 19 9 53 27 75 41 22 13 58 32 80 42 22 11 46 27 54 36 7 9 21 16
31 16 9 0 28 9 41 19 14 10 40 26 59 35 51 24 188 100 197 109 4 5 -1 15 -11
23 -17 12 -319 14 -2095 14 -1392 -1 -2082 -4 -2093 -11z"/>
<path d="M15675 3951 c-18 -7 -20 -20 -25 -137 l-5 -129 -60 -5 c-74 -6 -85
-13 -85 -53 0 -55 23 -77 80 -77 39 0 52 -4 60 -19 6 -13 10 -142 10 -353 l0
-333 26 -50 c38 -70 70 -97 129 -107 59 -10 178 0 200 16 23 17 30 86 12 111
-15 19 -17 19 -45 3 -17 -10 -40 -18 -52 -18 -26 0 -105 53 -114 75 -3 9 -6
159 -6 334 0 233 3 320 12 329 7 7 40 12 79 12 59 0 70 3 83 22 19 27 21 84 4
95 -7 4 -49 10 -93 13 l-80 5 -5 123 c-4 107 -8 126 -24 138 -21 15 -69 17
-101 5z"/>
<path d="M6929 3754 c-11 -14 -34 -28 -118 -73 -14 -8 -32 -22 -39 -32 -6 -10
-25 -20 -41 -24 -16 -3 -37 -15 -47 -26 -9 -10 -23 -19 -29 -19 -7 0 -18 -7
-25 -16 -8 -8 -27 -22 -44 -30 -17 -8 -52 -29 -78 -47 -26 -17 -61 -41 -79
-52 -18 -11 -49 -30 -68 -42 -20 -12 -49 -30 -66 -39 -16 -9 -33 -22 -38 -30
-4 -7 -21 -15 -37 -19 -16 -4 -32 -11 -35 -16 -3 -4 -29 -24 -58 -42 -29 -18
-65 -42 -81 -53 -54 -35 -101 -63 -133 -79 -18 -8 -33 -20 -33 -25 0 -5 -12
-13 -27 -16 -16 -4 -39 -16 -53 -28 -25 -21 -53 -39 -101 -63 -14 -7 -34 -22
-44 -33 -10 -11 -23 -20 -29 -20 -10 0 -87 -47 -114 -70 -7 -6 -27 -18 -45
-26 -17 -8 -52 -30 -77 -49 -25 -18 -50 -34 -57 -34 -6 -1 -24 -12 -40 -25
-15 -13 -41 -31 -58 -40 -46 -25 -67 -39 -98 -63 -16 -13 -34 -23 -41 -23 -7
0 -22 -8 -34 -17 -12 -10 -44 -31 -72 -48 -29 -16 -65 -40 -80 -52 -15 -13
-32 -23 -36 -23 -5 0 -34 -18 -64 -40 -30 -22 -65 -44 -77 -49 -12 -6 -45 -27
-74 -47 -29 -20 -66 -43 -83 -50 -17 -8 -56 -32 -86 -54 -30 -22 -59 -40 -64
-40 -4 0 -21 -11 -38 -25 -16 -14 -35 -25 -42 -25 -7 0 -21 -9 -31 -20 -10
-11 -22 -20 -28 -20 -5 0 -22 -11 -39 -25 -16 -14 -35 -25 -43 -25 -7 0 -18
-7 -25 -15 -7 -8 -45 -33 -85 -55 -40 -22 -78 -47 -85 -55 -7 -8 -18 -15 -24
-15 -6 0 -36 -18 -66 -40 -30 -22 -64 -44 -76 -49 -30 -13 -86 -52 -134 -94
l-42 -35 54 -7 c29 -3 208 -5 398 -3 333 3 346 4 384 25 21 12 46 28 55 36 9
8 26 18 37 21 12 4 29 15 39 26 10 11 23 20 29 20 6 0 36 18 66 40 30 22 72
47 93 56 20 9 37 19 37 23 0 4 16 15 35 24 19 9 35 21 35 26 0 5 13 12 30 16
16 4 32 11 35 16 7 11 110 79 120 79 4 0 20 10 35 23 15 12 51 36 80 52 28 17
60 38 72 48 12 9 27 17 35 17 7 0 22 9 32 19 10 10 30 25 44 32 13 8 42 24 64
36 22 12 45 29 52 37 8 9 19 16 25 16 6 0 36 18 66 40 30 22 70 46 87 54 18 8
38 20 45 26 28 23 104 70 114 70 6 0 17 7 25 16 7 8 29 24 48 35 20 11 48 27
62 37 14 9 39 26 55 36 16 11 49 32 74 48 25 15 54 35 65 43 10 8 25 15 31 15
7 0 25 10 41 23 32 25 54 39 104 66 19 11 41 27 48 35 8 9 19 16 25 16 6 0 36
18 66 40 30 22 72 47 93 56 20 9 37 20 37 25 0 5 10 13 23 18 13 5 43 23 68
40 24 17 67 47 94 66 28 19 55 35 60 35 6 1 30 19 55 40 l45 40 0 236 c0 234
0 237 -22 245 -15 5 -25 3 -34 -7z"/>
<path d="M13151 3684 c-55 -8 -101 -20 -110 -29 -30 -29 -93 -74 -111 -80 -10
-3 -25 -20 -34 -38 -9 -18 -33 -54 -52 -81 -27 -36 -38 -64 -45 -110 -4 -34
-15 -81 -24 -105 -20 -58 -19 -96 5 -166 11 -32 20 -68 20 -79 0 -12 16 -43
35 -71 20 -27 47 -67 60 -87 14 -21 40 -45 57 -54 18 -9 37 -23 41 -30 4 -8
14 -14 21 -14 7 0 31 -12 52 -27 38 -26 41 -27 204 -26 l165 0 57 32 c32 18
61 37 64 42 3 5 21 16 40 24 42 17 44 42 8 84 -25 30 -26 31 -62 15 -20 -8
-40 -21 -44 -29 -5 -7 -23 -16 -41 -20 -17 -4 -43 -14 -57 -23 -19 -13 -49
-17 -120 -17 -82 0 -101 4 -140 25 -75 41 -139 90 -146 113 -3 12 -15 30 -25
40 -11 10 -19 27 -19 37 0 11 -6 40 -12 66 -21 76 -30 74 382 74 269 0 360 3
373 13 15 11 15 23 6 117 -6 58 -17 112 -24 120 -7 8 -20 31 -29 50 -30 64
-64 113 -87 126 -26 14 -60 39 -96 72 -18 16 -45 25 -101 32 -42 6 -86 12 -97
14 -11 2 -62 -3 -114 -10z m220 -124 c53 -24 82 -48 153 -130 8 -8 19 -39 25
-68 6 -30 16 -62 21 -72 18 -34 -35 -40 -326 -40 -283 0 -332 6 -319 38 4 9
13 40 20 69 6 28 19 59 29 68 9 9 16 20 16 25 0 27 116 110 170 121 45 10 179
3 211 -11z"/>
<path d="M20847 3684 c-81 -13 -93 -18 -144 -59 -30 -25 -61 -45 -68 -45 -8 0
-31 -26 -51 -57 -20 -32 -46 -71 -56 -87 -11 -15 -24 -56 -28 -90 -4 -33 -15
-83 -24 -109 -16 -46 -15 -52 4 -114 11 -36 20 -79 20 -97 0 -17 9 -47 19 -66
11 -19 25 -46 31 -59 18 -39 132 -144 196 -181 l59 -34 151 0 152 1 57 39 c32
21 71 49 89 60 37 25 90 90 100 122 4 12 11 22 16 22 10 0 30 56 30 87 0 13 9
49 20 80 24 68 25 121 5 169 -8 20 -19 63 -25 97 -5 36 -18 69 -30 82 -11 12
-20 25 -20 30 0 24 -60 90 -109 122 -31 20 -66 45 -77 55 -15 13 -53 24 -120
33 -55 8 -101 14 -104 13 -3 0 -45 -7 -93 -14z m226 -143 c66 -31 137 -89 137
-113 0 -8 9 -23 20 -33 11 -10 20 -26 20 -35 0 -9 9 -43 21 -76 14 -41 19 -74
15 -109 -6 -73 -38 -177 -63 -209 -12 -15 -25 -35 -28 -44 -3 -9 -25 -30 -48
-47 -84 -60 -213 -91 -258 -62 -13 8 -41 18 -61 21 -21 4 -41 12 -45 19 -5 7
-25 25 -45 40 -21 15 -38 34 -38 41 0 7 -9 22 -21 35 -12 12 -27 48 -34 79 -7
31 -19 76 -25 100 -11 37 -10 53 10 125 12 45 28 93 36 107 7 14 20 39 28 55
16 34 77 81 146 113 69 32 156 30 233 -7z"/>
<path d="M30287 3684 c-87 -14 -105 -22 -170 -79 -10 -9 -28 -20 -41 -25 -13
-5 -41 -35 -61 -67 -21 -32 -47 -71 -58 -87 -11 -16 -22 -50 -24 -75 -3 -25
-14 -73 -25 -107 -16 -50 -18 -69 -9 -110 19 -94 48 -179 72 -214 74 -107 86
-118 218 -200 l56 -34 160 0 160 1 60 34 c33 18 62 37 63 41 2 5 19 15 38 23
28 11 34 19 34 44 0 43 -41 74 -78 59 -15 -7 -36 -19 -47 -28 -11 -9 -47 -27
-80 -40 -85 -35 -220 -35 -285 1 -69 37 -129 82 -135 102 -4 9 -17 29 -29 45
-34 40 -50 157 -24 174 7 4 172 8 366 8 219 0 361 4 372 10 18 9 19 19 13 113
-4 85 -9 108 -29 138 -13 19 -24 39 -24 44 0 17 -72 115 -93 126 -12 7 -43 29
-68 50 -47 39 -55 41 -219 63 -14 1 -65 -3 -113 -10z m242 -136 c81 -48 138
-118 156 -191 7 -28 15 -59 19 -68 15 -34 -37 -40 -342 -37 -296 3 -331 8
-304 40 5 7 13 31 17 53 17 96 124 204 225 226 61 14 190 1 229 -23z"/>
<path d="M14331 3680 c-29 -5 -66 -18 -82 -29 -15 -12 -33 -21 -38 -21 -5 0
-23 -11 -39 -25 -17 -14 -44 -28 -61 -31 -31 -6 -31 -6 -31 33 0 54 -26 78
-76 70 -20 -3 -42 -11 -49 -17 -10 -8 -13 -107 -14 -472 -1 -521 -5 -498 74
-498 22 0 46 5 53 12 9 9 12 101 12 353 1 418 -7 396 169 487 46 24 66 28 133
28 69 0 85 -4 133 -31 30 -17 55 -36 55 -43 0 -6 10 -30 22 -51 21 -39 22 -51
26 -390 2 -254 7 -352 15 -357 19 -12 102 -9 115 4 19 19 17 674 -2 742 -8 28
-19 69 -25 91 -7 28 -27 56 -61 89 -46 44 -55 49 -117 57 -79 10 -137 10 -212
-1z"/>
<path d="M17641 3679 c-39 -7 -65 -19 -100 -48 -25 -21 -61 -46 -78 -55 -18
-9 -33 -20 -33 -25 0 -4 -22 -41 -49 -82 -38 -59 -50 -86 -55 -130 -3 -31 -13
-72 -21 -92 -21 -50 -19 -112 5 -180 11 -31 20 -64 20 -74 0 -10 16 -40 35
-68 20 -27 46 -66 60 -86 21 -32 37 -45 110 -91 11 -7 37 -24 58 -37 38 -24
45 -25 208 -25 158 1 171 2 199 22 16 12 33 22 38 22 5 0 26 13 47 30 20 16
45 32 56 35 26 9 24 38 -7 74 -25 30 -26 30 -61 16 -20 -8 -41 -22 -47 -29 -6
-8 -27 -19 -46 -25 -19 -5 -55 -17 -80 -26 -61 -23 -170 -16 -228 14 -73 37
-139 90 -152 120 -6 16 -17 32 -24 34 -19 8 -41 144 -26 162 11 13 68 15 375
15 332 0 363 1 377 18 12 14 13 33 6 112 -5 52 -14 102 -19 110 -5 8 -16 31
-25 50 -9 19 -24 44 -34 55 -10 11 -21 30 -25 43 -3 12 -21 30 -38 38 -18 9
-39 23 -47 30 -57 52 -83 66 -142 75 -76 11 -184 10 -257 -2z m211 -108 c74
-12 142 -60 192 -134 31 -46 61 -156 46 -171 -15 -15 -615 -15 -629 -1 -14 14
19 133 50 175 82 116 187 156 341 131z"/>
<path d="M26263 3680 c-65 -7 -78 -13 -125 -51 -74 -60 -128 -117 -128 -136 0
-9 -9 -27 -21 -39 -15 -16 -23 -43 -29 -98 -5 -41 -14 -84 -19 -95 -14 -26
-14 -102 0 -138 6 -15 15 -59 20 -97 6 -47 17 -82 34 -106 14 -20 25 -40 25
-46 0 -24 138 -144 166 -144 6 0 31 -9 55 -20 33 -14 66 -20 130 -20 75 0 93
4 140 28 30 15 72 44 94 65 41 38 76 54 94 42 13 -8 14 -109 2 -150 -39 -124
-85 -199 -131 -210 -14 -4 -35 -16 -47 -27 -20 -18 -31 -20 -155 -16 -112 4
-139 8 -173 26 -21 12 -44 22 -51 22 -6 0 -19 9 -29 20 -20 22 -74 27 -93 8
-7 -7 -12 -25 -12 -41 0 -36 39 -74 116 -113 57 -29 57 -29 250 -29 160 0 195
3 210 16 11 8 39 23 64 32 31 12 56 31 80 63 19 25 44 56 56 68 11 11 29 53
40 91 18 65 19 107 19 575 l0 505 -48 9 c-66 13 -81 2 -87 -62 -3 -28 -8 -54
-12 -57 -6 -7 -44 16 -138 84 -52 37 -60 40 -140 45 -47 2 -118 1 -157 -4z
m254 -130 c14 -11 33 -20 43 -20 22 0 92 -56 125 -99 25 -35 25 -36 25 -237
l0 -201 -34 -45 c-19 -25 -50 -55 -68 -66 -18 -12 -40 -26 -48 -31 -8 -5 -46
-16 -83 -25 -61 -14 -74 -14 -125 -1 -31 8 -62 15 -69 15 -20 0 -107 70 -122
99 -8 14 -22 37 -32 50 -11 13 -19 33 -19 43 0 11 -9 50 -20 87 -18 57 -19 74
-10 112 7 24 18 70 25 101 7 32 22 69 34 84 12 15 21 32 21 38 0 15 49 53 115
88 42 23 62 27 133 28 69 0 88 -4 109 -20z"/>
<path d="M18932 3668 c-18 -18 -14 -69 8 -103 11 -16 20 -45 20 -63 0 -18 11
-54 25 -80 14 -26 25 -61 25 -77 0 -17 7 -40 15 -52 8 -12 20 -45 26 -75 6
-29 20 -70 30 -90 11 -21 19 -50 19 -65 0 -15 11 -50 25 -78 13 -27 25 -63 25
-80 0 -16 9 -44 20 -62 10 -18 22 -55 26 -83 8 -60 21 -70 92 -70 67 0 90 20
101 87 4 28 16 63 25 78 9 14 21 51 26 82 5 31 16 63 25 73 8 9 15 30 15 46 0
16 10 48 21 69 12 22 25 64 29 93 5 30 15 61 23 70 9 10 18 35 22 57 11 65 14
72 42 90 30 20 42 9 43 -40 0 -16 12 -52 25 -80 14 -27 25 -61 25 -75 0 -14 8
-41 19 -60 10 -19 22 -55 26 -80 4 -25 15 -58 25 -75 10 -16 20 -49 24 -73 4
-24 13 -53 21 -66 8 -12 19 -46 25 -76 6 -29 22 -68 36 -87 25 -33 28 -34 87
-31 l62 3 11 51 c6 29 19 62 28 75 9 13 16 37 16 54 0 16 11 53 25 80 13 28
25 63 25 79 0 16 8 43 19 60 10 17 21 52 24 78 4 26 16 62 27 80 11 18 20 47
20 63 0 17 9 47 20 67 11 21 23 57 26 80 4 24 14 57 24 73 10 17 21 51 24 77
6 40 4 48 -13 57 -24 13 -72 14 -104 2 -20 -8 -25 -19 -31 -63 -4 -29 -14 -60
-22 -69 -8 -9 -19 -42 -24 -74 -5 -32 -16 -68 -25 -81 -8 -13 -18 -45 -21 -71
-4 -27 -15 -64 -25 -83 -10 -19 -20 -55 -24 -80 -3 -25 -14 -59 -25 -75 -11
-17 -20 -44 -20 -62 0 -17 -4 -43 -10 -57 -8 -23 -12 -25 -35 -14 -23 10 -45
57 -45 96 0 6 -9 29 -20 49 -11 21 -20 49 -20 63 0 14 -11 48 -25 75 -13 28
-25 64 -25 80 0 17 -9 43 -20 60 -11 16 -22 50 -26 75 -3 25 -14 59 -24 75
-10 17 -20 50 -23 74 -7 54 -32 81 -84 88 -33 4 -44 1 -63 -18 -28 -30 -50
-80 -50 -115 0 -15 -9 -41 -19 -58 -10 -17 -22 -51 -26 -75 -4 -24 -16 -58
-26 -75 -10 -17 -19 -44 -19 -61 0 -16 -12 -52 -25 -80 -14 -27 -25 -60 -25
-73 0 -12 -9 -40 -20 -61 -11 -22 -22 -58 -26 -80 -9 -55 -22 -60 -56 -22 -20
22 -28 42 -28 69 0 20 -9 54 -20 75 -11 21 -23 59 -27 85 -3 26 -13 61 -23 77
-10 17 -20 52 -24 79 -3 27 -13 57 -22 67 -8 9 -19 44 -24 77 -4 33 -15 71
-23 83 -8 13 -18 37 -22 54 -3 16 -11 36 -17 42 -13 16 -100 17 -116 1z"/>
<path d="M21720 3667 l-25 -13 -2 -468 c-3 -436 -2 -470 15 -482 21 -17 94
-18 110 -2 9 9 12 99 12 343 l1 330 27 39 c29 42 126 116 153 116 26 0 113 32
132 48 20 17 23 72 5 90 -15 15 -77 16 -113 2 -29 -11 -36 -17 -103 -77 -31
-29 -56 -43 -74 -43 -27 0 -28 2 -28 48 0 74 -45 102 -110 69z"/>
<path d="M24524 3670 c-43 -17 -39 -86 6 -110 12 -7 100 -10 232 -10 217 1
248 -2 248 -25 0 -17 -39 -85 -49 -85 -4 0 -23 -24 -41 -52 -18 -29 -52 -75
-74 -103 -23 -27 -55 -70 -71 -95 -16 -25 -48 -67 -70 -95 -40 -49 -69 -90
-90 -124 -5 -10 -30 -41 -54 -69 -64 -77 -91 -181 -52 -202 13 -6 144 -10 359
-10 290 0 341 2 352 15 16 19 8 104 -11 116 -8 5 -121 9 -252 9 -204 0 -238 2
-243 15 -7 17 26 70 91 150 23 28 58 75 78 107 20 31 40 58 44 60 8 3 19 17
80 108 20 30 46 65 58 76 11 12 31 38 45 58 39 57 78 109 95 127 9 9 18 39 21
66 11 86 23 83 -354 82 -180 0 -337 -4 -348 -9z"/>
<path d="M25550 3667 l-25 -13 -3 -469 c-2 -433 -1 -471 15 -482 20 -16 77
-17 104 -3 18 10 19 26 19 480 l0 469 -22 15 c-27 19 -54 20 -88 3z"/>
<path d="M532 3018 c-9 -9 -12 -68 -12 -204 0 -161 3 -195 15 -208 14 -14 117
-15 939 -13 839 2 926 4 942 18 11 9 52 34 92 54 39 21 77 44 83 52 6 7 20 13
29 13 10 0 32 11 48 25 17 14 37 25 45 25 8 0 25 9 38 19 14 10 40 26 59 35
19 9 53 28 75 41 22 14 58 34 80 46 22 11 59 30 82 42 54 29 58 34 43 52 -11
13 -156 15 -1279 15 -972 0 -1270 -3 -1279 -12z"/>
<path d="M27156 2849 c-47 -55 -26 -130 44 -159 42 -17 40 -56 -5 -112 -68
-84 -71 -118 -13 -118 28 0 40 9 79 58 25 31 51 66 57 78 18 34 26 164 13 211
-14 53 -42 73 -102 73 -40 0 -51 -4 -73 -31z"/>
<path d="M6935 2730 c-5 -8 -50 -38 -126 -85 -9 -6 -29 -19 -45 -29 -112 -74
-162 -105 -180 -110 -12 -4 -29 -15 -39 -26 -10 -11 -23 -20 -30 -20 -7 0 -20
-9 -30 -20 -10 -11 -24 -20 -31 -20 -7 0 -26 -11 -42 -25 -17 -14 -33 -25 -36
-25 -3 0 -31 -17 -62 -37 -31 -21 -73 -48 -93 -60 -20 -12 -52 -31 -71 -43
-19 -12 -51 -31 -71 -43 -20 -12 -61 -39 -91 -59 -30 -21 -58 -38 -63 -38 -4
0 -20 -11 -37 -25 -16 -14 -35 -25 -42 -25 -7 0 -21 -9 -31 -20 -10 -11 -24
-20 -31 -20 -7 0 -25 -11 -40 -25 -15 -14 -33 -25 -40 -25 -7 0 -25 -10 -41
-22 -32 -26 -54 -40 -104 -67 -19 -11 -41 -27 -48 -35 -8 -9 -18 -16 -24 -16
-15 0 -108 -65 -140 -99 l-29 -29 44 -7 c24 -4 199 -5 388 -3 387 5 347 -3
497 96 51 34 98 61 130 76 17 9 35 21 39 27 3 6 21 17 38 25 17 8 56 32 86 54
30 22 59 40 64 40 5 0 18 8 28 17 25 22 85 59 121 74 15 6 27 15 27 20 0 6 15
17 33 25 53 25 104 58 141 92 l36 32 0 234 0 233 -25 11 c-15 7 -27 8 -30 2z"/>
<path d="M526 2114 c-12 -32 -6 -388 7 -414 12 -24 17 -25 120 -28 109 -3 136
3 217 49 8 4 49 27 90 50 41 23 86 50 99 60 13 11 32 19 41 19 10 0 24 7 31
16 8 9 32 25 54 36 22 10 58 29 80 43 69 41 109 63 150 83 22 11 46 27 54 36
7 9 17 16 22 16 4 0 20 5 34 10 23 9 25 13 15 25 -11 13 -82 15 -510 15 -445
0 -499 -2 -504 -16z"/>
</g>
</svg>
