<?xml version="1.0" standalone="no"?>
<!DOCTYPE svg PUBLIC "-//W3C//DTD SVG 20010904//EN"
 "http://www.w3.org/TR/2001/REC-SVG-20010904/DTD/svg10.dtd">
<svg version="1.0" xmlns="http://www.w3.org/2000/svg"
 width="128.000000pt" height="128.000000pt" viewBox="0 0 128.000000 128.000000"
 preserveAspectRatio="xMidYMid meet">
<metadata>
Created by potrace 1.16, written by Peter Selinger 2001-2019
</metadata>
<g transform="translate(0.000000,128.000000) scale(0.100000,-0.100000)"
fill="#ffffff" stroke="none">
<path d="M20 640 l0 -640 625 0 625 0 0 640 0 640 -625 0 -625 0 0 -640z m347
589 c-9 -6 -74 -46 -144 -90 -69 -43 -130 -79 -134 -79 -5 0 -9 20 -9 44 0 44
0 45 73 90 69 43 75 45 152 45 60 0 75 -2 62 -10z m302 8 c-2 -2 -89 -57 -194
-122 -104 -65 -212 -132 -240 -150 -105 -67 -135 -85 -145 -85 -18 0 -12 84 7
96 10 6 108 68 218 138 l200 126 79 0 c44 0 77 -1 75 -3z m291 -1 c0 -3 -70
-49 -157 -103 -86 -54 -178 -111 -204 -128 -26 -16 -120 -75 -208 -130 -89
-55 -161 -103 -161 -107 0 -5 225 -8 500 -8 l500 0 0 -40 0 -40 -575 0 -575 0
0 48 0 48 88 56 c48 30 166 105 262 165 96 61 222 140 280 177 104 65 105 66
178 66 39 0 72 -2 72 -4z m265 -191 l0 -40 -227 -3 c-126 -1 -228 1 -228 6 0
4 30 24 68 45 l67 37 160 -3 160 -2 0 -40z m3 -162 l-3 -38 -373 -3 c-255 -1
-371 1 -367 8 4 6 32 24 63 40 l57 29 313 1 313 0 -3 -37z m-3 -327 l0 -49
-150 -95 c-82 -52 -250 -157 -372 -233 l-222 -139 -73 0 c-45 0 -68 4 -63 9 9
9 158 103 583 370 l153 96 -498 5 -498 5 -3 28 c-7 61 -44 57 575 55 l568 -3
0 -49z m-402 -113 c4 -3 -25 -24 -64 -45 l-71 -38 -301 2 -302 3 -3 28 c-7 60
-25 57 371 57 200 0 367 -3 370 -7z m407 -77 c0 -41 -2 -44 -52 -76 -67 -43
-122 -77 -276 -173 l-122 -77 -71 0 c-43 0 -68 4 -64 10 3 5 36 28 73 50 37
22 99 60 137 85 206 131 358 225 368 225 4 0 7 -20 7 -44z m-696 -95 c-5 -4
-36 -23 -69 -40 l-61 -32 -159 3 -160 3 -3 38 -3 37 232 0 c132 0 229 -4 223
-9z m696 -85 c0 -41 -3 -45 -53 -78 -90 -60 -111 -68 -184 -68 -50 0 -64 3
-56 11 15 15 276 178 286 179 4 0 7 -20 7 -44z"/>
</g>
</svg>
